<svg width="104" height="39" viewBox="0 0 104 39" fill="none" xmlns="http://www.w3.org/2000/svg">
<path d="M22.976 31.552C23.872 30.592 25.088 30.72 24.576 31.68C22.528 35.456 17.792 38.464 13.12 38.464C5.888 38.464 0 32.832 0 25.92C0 19.008 5.888 13.376 13.12 13.376C23.232 13.376 26.112 21.504 21.696 26.048C18.368 29.568 10.624 30.464 8.448 26.688C8.96 36.416 19.328 35.264 22.976 31.552ZM14.976 16.512C11.712 15.872 8.896 19.84 8.512 24.64C15.232 28.416 19.456 17.408 14.976 16.512ZM34.307 32.64C34.307 37.632 37.315 36.928 37.443 37.824C37.507 38.208 37.123 38.464 36.739 38.464C36.035 38.464 32.963 37.696 30.659 37.696C28.355 37.696 25.283 38.464 24.515 38.464C24.195 38.464 23.811 38.208 23.875 37.824C24.003 36.928 27.011 37.632 27.011 32.64V11.328C27.011 6.33601 23.811 5.82401 23.875 4.92801C23.875 4.60801 24.195 4.35201 24.515 4.35201C27.587 4.35201 31.939 1.85601 32.771 0.832005C33.475 3.8147e-06 34.307 0.128006 34.307 1.02401V32.64ZM63.097 37.824C63.161 38.208 62.777 38.464 62.457 38.464C62.201 38.464 56.377 36.736 52.665 38.464V35.456C51.513 36.992 48.569 38.464 44.153 38.464C36.921 38.464 34.489 30.208 43.129 26.88C46.585 25.536 52.665 24.704 52.665 21.504C52.665 18.24 51.065 15.488 48.057 15.936C44.601 16.512 44.345 21.76 47.865 21.76C47.865 26.368 38.649 27.072 38.649 21.12C38.649 16.96 43.257 13.376 48.953 13.376C55.481 13.376 60.025 16.192 60.025 23.488V32.64C60.025 37.632 62.969 36.928 63.097 37.824ZM52.665 32.32V25.92C51.129 27.264 44.409 29.312 45.369 32.832C46.201 36.096 50.233 35.264 52.665 32.32ZM100.696 32.64C100.696 37.632 103.704 36.928 103.832 37.824C103.896 38.208 103.512 38.464 103.192 38.464C102.936 38.464 97.112 36.736 93.4 38.464V35.456C92.248 36.992 89.24 38.464 84.888 38.464C77.592 38.464 75.224 30.208 83.864 26.88C87.256 25.536 93.336 24.704 93.336 21.504C93.336 17.28 86.808 14.656 79.32 20.224C76.696 22.144 74.456 24.832 73.432 27.776V32.64C73.432 37.632 76.44 36.928 76.568 37.824C76.632 38.208 76.248 38.464 75.864 38.464C75.16 38.464 72.088 37.696 69.784 37.696C67.48 37.696 64.408 38.464 63.64 38.464C63.32 38.464 62.936 38.208 63 37.824C63.128 36.928 66.136 37.632 66.136 32.64V24.448C66.136 19.392 62.936 18.944 63 18.048C63 17.728 63.32 17.472 63.64 17.472C66.712 17.472 71.064 14.976 71.896 13.952C72.6 13.056 73.432 13.248 73.432 14.08V22.464C77.656 16.256 84.888 13.376 89.688 13.376C96.216 13.376 100.696 16.192 100.696 23.488V32.64ZM86.04 32.832C86.936 36.096 90.968 35.264 93.4 32.32V25.92C91.8 27.264 85.144 29.312 86.04 32.832Z" fill="url(#paint0_linear_186_124)"/>
<defs>
<linearGradient id="paint0_linear_186_124" x1="0" y1="-10.096" x2="68.0822" y2="71.2597" gradientUnits="userSpaceOnUse">
<stop offset="0.0192308" stop-color="#D50048"/>
<stop offset="0.509615" stop-color="#BE7281"/>
<stop offset="1" stop-color="#4D4E86"/>
</linearGradient>
</defs>
</svg>
