<svg width="74" height="67" viewBox="0 0 74 67" fill="none" xmlns="http://www.w3.org/2000/svg">
<g clip-path="url(#clip0_2222_2571)">
<path d="M51.223 24.648C52.438 23.346 54.086 23.52 53.392 24.822C50.615 29.942 44.193 34.02 37.857 34.02C28.05 34.02 20.066 26.383 20.066 17.011C20.066 7.637 28.05 0 37.857 0C51.57 0 55.475 11.022 49.487 17.184C44.974 21.957 34.472 23.173 31.522 18.052C32.216 31.244 46.276 29.682 51.223 24.648ZM40.374 4.252C35.948 3.385 32.13 8.765 31.609 15.275C40.722 20.396 46.449 5.468 40.374 4.252Z" fill="white"/>
<path d="M24.648 18.038C23.346 16.823 23.52 15.174 24.822 15.869C29.942 18.646 34.021 25.068 34.021 31.403C34.021 41.211 26.384 49.196 17.011 49.196C7.637 49.196 0 41.211 0 31.403C0 17.691 11.022 13.786 17.184 19.774C21.957 24.287 23.173 34.788 18.052 37.74C31.244 37.045 29.682 22.985 24.648 18.038ZM4.253 28.886C3.385 33.312 8.766 37.131 15.275 37.652C20.395 28.54 5.468 22.811 4.253 28.886Z" fill="white"/>
<path d="M22.4 42.089C21.186 43.39 19.537 43.217 20.23 41.915C23.009 36.795 29.43 32.716 35.766 32.716C45.573 32.716 53.557 40.353 53.557 49.726C53.557 59.099 45.573 66.737 35.766 66.737C22.053 66.737 18.148 55.714 24.136 49.552C28.649 44.779 39.151 43.564 42.101 48.685C41.407 35.493 27.348 37.055 22.4 42.089ZM33.249 62.484C37.676 63.352 41.493 57.971 42.014 51.462C32.902 46.341 27.174 61.268 33.249 62.484Z" fill="white"/>
<path d="M48.633 49.042C49.935 50.256 49.761 51.905 48.458 51.212C43.338 48.434 39.259 42.012 39.259 35.676C39.259 25.869 46.897 17.885 56.27 17.885C65.643 17.885 73.281 25.869 73.281 35.676C73.281 49.389 62.259 53.294 56.097 47.306C51.323 42.793 50.108 32.291 55.228 29.341C42.037 30.035 43.599 44.094 48.633 49.042ZM69.028 38.193C69.896 33.767 64.515 29.949 58.005 29.428C52.886 38.541 67.813 44.267 69.028 38.193Z" fill="white"/>
</g>
<defs>
<clip-path id="clip0_2222_2571">
<rect width="73.281" height="66.737" fill="white"/>
</clip-path>
</defs>
</svg>
