<svg width="1512" height="209" viewBox="0 0 1512 209" fill="none" xmlns="http://www.w3.org/2000/svg">
<path d="M-171.12 205.24C-166.64 200.44 -160.56 201.08 -163.12 205.88C-173.36 224.76 -197.04 239.8 -220.4 239.8C-256.56 239.8 -286 211.64 -286 177.08C-286 142.52 -256.56 114.36 -220.4 114.36C-169.84 114.36 -155.44 155 -177.52 177.72C-194.16 195.32 -232.88 199.8 -243.76 180.92C-241.2 229.56 -189.36 223.8 -171.12 205.24ZM-211.12 130.04C-227.44 126.84 -241.52 146.68 -243.44 170.68C-209.84 189.56 -188.72 134.52 -211.12 130.04ZM-114.465 210.68C-114.465 235.64 -99.425 232.12 -98.785 236.6C-98.465 238.52 -100.385 239.8 -102.305 239.8C-105.825 239.8 -121.185 235.96 -132.705 235.96C-144.225 235.96 -159.585 239.8 -163.425 239.8C-165.025 239.8 -166.945 238.52 -166.625 236.6C-165.985 232.12 -150.945 235.64 -150.945 210.68V104.12C-150.945 79.16 -166.945 76.6 -166.625 72.12C-166.625 70.52 -165.025 69.24 -163.425 69.24C-148.065 69.24 -126.305 56.76 -122.145 51.64C-118.625 47.48 -114.465 48.12 -114.465 52.6V210.68ZM29.485 236.6C29.805 238.52 27.885 239.8 26.285 239.8C25.005 239.8 -4.115 231.16 -22.675 239.8V224.76C-28.435 232.44 -43.155 239.8 -65.235 239.8C-101.395 239.8 -113.555 198.52 -70.355 181.88C-53.075 175.16 -22.675 171 -22.675 155C-22.675 138.68 -30.675 124.92 -45.715 127.16C-62.995 130.04 -64.275 156.28 -46.675 156.28C-46.675 179.32 -92.755 182.84 -92.755 153.08C-92.755 132.28 -69.715 114.36 -41.235 114.36C-8.595 114.36 14.125 128.44 14.125 164.92V210.68C14.125 235.64 28.845 232.12 29.485 236.6ZM-22.675 209.08V177.08C-30.355 183.8 -63.955 194.04 -59.155 211.64C-54.995 227.96 -34.835 223.8 -22.675 209.08ZM217.48 210.68C217.48 235.64 232.52 232.12 233.16 236.6C233.48 238.52 231.56 239.8 229.96 239.8C228.68 239.8 199.56 231.16 181 239.8V224.76C175.24 232.44 160.2 239.8 138.44 239.8C101.96 239.8 90.12 198.52 133.32 181.88C150.28 175.16 180.68 171 180.68 155C180.68 133.88 148.04 120.76 110.6 148.6C97.48 158.2 86.28 171.64 81.16 186.36V210.68C81.16 235.64 96.2 232.12 96.84 236.6C97.16 238.52 95.24 239.8 93.32 239.8C89.8 239.8 74.44 235.96 62.92 235.96C51.4 235.96 36.04 239.8 32.2 239.8C30.6 239.8 28.68 238.52 29 236.6C29.64 232.12 44.68 235.64 44.68 210.68V169.72C44.68 144.44 28.68 142.2 29 137.72C29 136.12 30.6 134.84 32.2 134.84C47.56 134.84 69.32 122.36 73.48 117.24C77 112.76 81.16 113.72 81.16 117.88V159.8C102.28 128.76 138.44 114.36 162.44 114.36C195.08 114.36 217.48 128.44 217.48 164.92V210.68ZM144.2 211.64C148.68 227.96 168.84 223.8 181 209.08V177.08C173 183.8 139.72 194.04 144.2 211.64Z" fill="url(#paint0_radial_2210_2565)" fill-opacity="0.08"/>
<path d="M349.88 205.24C354.36 200.44 360.44 201.08 357.88 205.88C347.64 224.76 323.96 239.8 300.6 239.8C264.44 239.8 235 211.64 235 177.08C235 142.52 264.44 114.36 300.6 114.36C351.16 114.36 365.56 155 343.48 177.72C326.84 195.32 288.12 199.8 277.24 180.92C279.8 229.56 331.64 223.8 349.88 205.24ZM309.88 130.04C293.56 126.84 279.48 146.68 277.56 170.68C311.16 189.56 332.28 134.52 309.88 130.04ZM406.535 210.68C406.535 235.64 421.575 232.12 422.215 236.6C422.535 238.52 420.615 239.8 418.695 239.8C415.175 239.8 399.815 235.96 388.295 235.96C376.775 235.96 361.415 239.8 357.575 239.8C355.975 239.8 354.055 238.52 354.375 236.6C355.015 232.12 370.055 235.64 370.055 210.68V104.12C370.055 79.16 354.055 76.6 354.375 72.12C354.375 70.52 355.975 69.24 357.575 69.24C372.935 69.24 394.695 56.76 398.855 51.64C402.375 47.48 406.535 48.12 406.535 52.6V210.68ZM550.485 236.6C550.805 238.52 548.885 239.8 547.285 239.8C546.005 239.8 516.885 231.16 498.325 239.8V224.76C492.565 232.44 477.845 239.8 455.765 239.8C419.605 239.8 407.445 198.52 450.645 181.88C467.925 175.16 498.325 171 498.325 155C498.325 138.68 490.325 124.92 475.285 127.16C458.005 130.04 456.725 156.28 474.325 156.28C474.325 179.32 428.245 182.84 428.245 153.08C428.245 132.28 451.285 114.36 479.765 114.36C512.405 114.36 535.125 128.44 535.125 164.92V210.68C535.125 235.64 549.845 232.12 550.485 236.6ZM498.325 209.08V177.08C490.645 183.8 457.045 194.04 461.845 211.64C466.005 227.96 486.165 223.8 498.325 209.08ZM738.48 210.68C738.48 235.64 753.52 232.12 754.16 236.6C754.48 238.52 752.56 239.8 750.96 239.8C749.68 239.8 720.56 231.16 702 239.8V224.76C696.24 232.44 681.2 239.8 659.44 239.8C622.96 239.8 611.12 198.52 654.32 181.88C671.28 175.16 701.68 171 701.68 155C701.68 133.88 669.04 120.76 631.6 148.6C618.48 158.2 607.28 171.64 602.16 186.36V210.68C602.16 235.64 617.2 232.12 617.84 236.6C618.16 238.52 616.24 239.8 614.32 239.8C610.8 239.8 595.44 235.96 583.92 235.96C572.4 235.96 557.04 239.8 553.2 239.8C551.6 239.8 549.68 238.52 550 236.6C550.64 232.12 565.68 235.64 565.68 210.68V169.72C565.68 144.44 549.68 142.2 550 137.72C550 136.12 551.6 134.84 553.2 134.84C568.56 134.84 590.32 122.36 594.48 117.24C598 112.76 602.16 113.72 602.16 117.88V159.8C623.28 128.76 659.44 114.36 683.44 114.36C716.08 114.36 738.48 128.44 738.48 164.92V210.68ZM665.2 211.64C669.68 227.96 689.84 223.8 702 209.08V177.08C694 183.8 660.72 194.04 665.2 211.64Z" fill="url(#paint1_radial_2210_2565)" fill-opacity="0.08"/>
<path d="M870.88 205.24C875.36 200.44 881.44 201.08 878.88 205.88C868.64 224.76 844.96 239.8 821.6 239.8C785.44 239.8 756 211.64 756 177.08C756 142.52 785.44 114.36 821.6 114.36C872.16 114.36 886.56 155 864.48 177.72C847.84 195.32 809.12 199.8 798.24 180.92C800.8 229.56 852.64 223.8 870.88 205.24ZM830.88 130.04C814.56 126.84 800.48 146.68 798.56 170.68C832.16 189.56 853.28 134.52 830.88 130.04ZM927.535 210.68C927.535 235.64 942.575 232.12 943.215 236.6C943.535 238.52 941.615 239.8 939.695 239.8C936.175 239.8 920.815 235.96 909.295 235.96C897.775 235.96 882.415 239.8 878.575 239.8C876.975 239.8 875.055 238.52 875.375 236.6C876.015 232.12 891.055 235.64 891.055 210.68V104.12C891.055 79.16 875.055 76.6 875.375 72.12C875.375 70.52 876.975 69.24 878.575 69.24C893.935 69.24 915.695 56.76 919.855 51.64C923.375 47.48 927.535 48.12 927.535 52.6V210.68ZM1071.49 236.6C1071.81 238.52 1069.89 239.8 1068.29 239.8C1067.01 239.8 1037.89 231.16 1019.33 239.8V224.76C1013.57 232.44 998.845 239.8 976.765 239.8C940.605 239.8 928.445 198.52 971.645 181.88C988.925 175.16 1019.33 171 1019.33 155C1019.33 138.68 1011.33 124.92 996.285 127.16C979.005 130.04 977.725 156.28 995.325 156.28C995.325 179.32 949.245 182.84 949.245 153.08C949.245 132.28 972.285 114.36 1000.77 114.36C1033.41 114.36 1056.13 128.44 1056.13 164.92V210.68C1056.13 235.64 1070.85 232.12 1071.49 236.6ZM1019.33 209.08V177.08C1011.65 183.8 978.045 194.04 982.845 211.64C987.005 227.96 1007.17 223.8 1019.33 209.08ZM1259.48 210.68C1259.48 235.64 1274.52 232.12 1275.16 236.6C1275.48 238.52 1273.56 239.8 1271.96 239.8C1270.68 239.8 1241.56 231.16 1223 239.8V224.76C1217.24 232.44 1202.2 239.8 1180.44 239.8C1143.96 239.8 1132.12 198.52 1175.32 181.88C1192.28 175.16 1222.68 171 1222.68 155C1222.68 133.88 1190.04 120.76 1152.6 148.6C1139.48 158.2 1128.28 171.64 1123.16 186.36V210.68C1123.16 235.64 1138.2 232.12 1138.84 236.6C1139.16 238.52 1137.24 239.8 1135.32 239.8C1131.8 239.8 1116.44 235.96 1104.92 235.96C1093.4 235.96 1078.04 239.8 1074.2 239.8C1072.6 239.8 1070.68 238.52 1071 236.6C1071.64 232.12 1086.68 235.64 1086.68 210.68V169.72C1086.68 144.44 1070.68 142.2 1071 137.72C1071 136.12 1072.6 134.84 1074.2 134.84C1089.56 134.84 1111.32 122.36 1115.48 117.24C1119 112.76 1123.16 113.72 1123.16 117.88V159.8C1144.28 128.76 1180.44 114.36 1204.44 114.36C1237.08 114.36 1259.48 128.44 1259.48 164.92V210.68ZM1186.2 211.64C1190.68 227.96 1210.84 223.8 1223 209.08V177.08C1215 183.8 1181.72 194.04 1186.2 211.64Z" fill="url(#paint2_radial_2210_2565)" fill-opacity="0.08"/>
<path d="M1391.88 205.24C1396.36 200.44 1402.44 201.08 1399.88 205.88C1389.64 224.76 1365.96 239.8 1342.6 239.8C1306.44 239.8 1277 211.64 1277 177.08C1277 142.52 1306.44 114.36 1342.6 114.36C1393.16 114.36 1407.56 155 1385.48 177.72C1368.84 195.32 1330.12 199.8 1319.24 180.92C1321.8 229.56 1373.64 223.8 1391.88 205.24ZM1351.88 130.04C1335.56 126.84 1321.48 146.68 1319.56 170.68C1353.16 189.56 1374.28 134.52 1351.88 130.04ZM1448.54 210.68C1448.54 235.64 1463.58 232.12 1464.22 236.6C1464.54 238.52 1462.62 239.8 1460.7 239.8C1457.18 239.8 1441.82 235.96 1430.3 235.96C1418.78 235.96 1403.42 239.8 1399.58 239.8C1397.98 239.8 1396.05 238.52 1396.38 236.6C1397.02 232.12 1412.06 235.64 1412.06 210.68V104.12C1412.06 79.16 1396.05 76.6 1396.38 72.12C1396.38 70.52 1397.98 69.24 1399.58 69.24C1414.94 69.24 1436.7 56.76 1440.86 51.64C1444.38 47.48 1448.54 48.12 1448.54 52.6V210.68ZM1592.49 236.6C1592.81 238.52 1590.89 239.8 1589.29 239.8C1588.01 239.8 1558.89 231.16 1540.33 239.8V224.76C1534.57 232.44 1519.85 239.8 1497.77 239.8C1461.6 239.8 1449.44 198.52 1492.65 181.88C1509.93 175.16 1540.33 171 1540.33 155C1540.33 138.68 1532.33 124.92 1517.29 127.16C1500.01 130.04 1498.73 156.28 1516.33 156.28C1516.33 179.32 1470.25 182.84 1470.25 153.08C1470.25 132.28 1493.29 114.36 1521.77 114.36C1554.41 114.36 1577.13 128.44 1577.13 164.92V210.68C1577.13 235.64 1591.85 232.12 1592.49 236.6ZM1540.33 209.08V177.08C1532.65 183.8 1499.05 194.04 1503.85 211.64C1508.01 227.96 1528.17 223.8 1540.33 209.08ZM1780.48 210.68C1780.48 235.64 1795.52 232.12 1796.16 236.6C1796.48 238.52 1794.56 239.8 1792.96 239.8C1791.68 239.8 1762.56 231.16 1744 239.8V224.76C1738.24 232.44 1723.2 239.8 1701.44 239.8C1664.96 239.8 1653.12 198.52 1696.32 181.88C1713.28 175.16 1743.68 171 1743.68 155C1743.68 133.88 1711.04 120.76 1673.6 148.6C1660.48 158.2 1649.28 171.64 1644.16 186.36V210.68C1644.16 235.64 1659.2 232.12 1659.84 236.6C1660.16 238.52 1658.24 239.8 1656.32 239.8C1652.8 239.8 1637.44 235.96 1625.92 235.96C1614.4 235.96 1599.04 239.8 1595.2 239.8C1593.6 239.8 1591.68 238.52 1592 236.6C1592.64 232.12 1607.68 235.64 1607.68 210.68V169.72C1607.68 144.44 1591.68 142.2 1592 137.72C1592 136.12 1593.6 134.84 1595.2 134.84C1610.56 134.84 1632.32 122.36 1636.48 117.24C1640 112.76 1644.16 113.72 1644.16 117.88V159.8C1665.28 128.76 1701.44 114.36 1725.44 114.36C1758.08 114.36 1780.48 128.44 1780.48 164.92V210.68ZM1707.2 211.64C1711.68 227.96 1731.84 223.8 1744 209.08V177.08C1736 183.8 1702.72 194.04 1707.2 211.64Z" fill="url(#paint3_radial_2210_2565)" fill-opacity="0.08"/>
<defs>
<radialGradient id="paint0_radial_2210_2565" cx="0" cy="0" r="1" gradientUnits="userSpaceOnUse" gradientTransform="translate(-25.5 172) scale(338.65 344)">
<stop offset="0.3" stop-color="white"/>
<stop offset="1" stop-color="white" stop-opacity="0.4"/>
</radialGradient>
<radialGradient id="paint1_radial_2210_2565" cx="0" cy="0" r="1" gradientUnits="userSpaceOnUse" gradientTransform="translate(495.5 172) scale(338.65 344)">
<stop offset="0.3" stop-color="white"/>
<stop offset="1" stop-color="white" stop-opacity="0.4"/>
</radialGradient>
<radialGradient id="paint2_radial_2210_2565" cx="0" cy="0" r="1" gradientUnits="userSpaceOnUse" gradientTransform="translate(1016.5 172) scale(338.65 344)">
<stop offset="0.3" stop-color="white"/>
<stop offset="1" stop-color="white" stop-opacity="0.4"/>
</radialGradient>
<radialGradient id="paint3_radial_2210_2565" cx="0" cy="0" r="1" gradientUnits="userSpaceOnUse" gradientTransform="translate(1537.5 172) scale(338.65 344)">
<stop offset="0.3" stop-color="white"/>
<stop offset="1" stop-color="white" stop-opacity="0.4"/>
</radialGradient>
</defs>
</svg>
