<svg width="169" height="1052" viewBox="0 0 169 1052" fill="none" xmlns="http://www.w3.org/2000/svg">
<g clip-path="url(#clip0_2242_1439)">
<rect width="1051.21" height="485" transform="matrix(4.37114e-08 1 1 -4.37114e-08 0 2.12e-05)" fill="#090909"/>
<g filter="url(#filter0_f_2242_1439)">
<path d="M319.574 474.097L242.5 397.023L165.426 474.097L242.5 551.171L319.574 474.097Z" fill="#6633EE" fill-opacity="0.36"/>
</g>
<g filter="url(#filter1_f_2242_1439)">
<path d="M165.426 474.097L88.5406 397.023L11.655 474.097L88.5406 551.171L165.426 474.097Z" fill="#6633EE" fill-opacity="0.36"/>
</g>
<g filter="url(#filter2_f_2242_1439)">
<path d="M319.574 320.138L242.5 243.252L165.426 320.138L242.5 397.023L319.574 320.138Z" fill="#6633EE" fill-opacity="0.36"/>
</g>
<g filter="url(#filter3_f_2242_1439)">
<path d="M165.426 320.138L88.5406 243.252L11.655 320.138L88.5406 397.023L165.426 320.138Z" fill="#6633EE" fill-opacity="0.36"/>
</g>
<g filter="url(#filter4_f_2242_1439)">
<path d="M319.574 628.244L242.5 551.171L165.426 628.244L242.5 705.318L319.574 628.244Z" fill="#6633EE" fill-opacity="0.36"/>
</g>
<g filter="url(#filter5_f_2242_1439)">
<path d="M165.426 628.244L88.5406 551.171L11.655 628.244L88.5406 705.318L165.426 628.244Z" fill="#6633EE" fill-opacity="0.36"/>
</g>
</g>
<defs>
<filter id="filter0_f_2242_1439" x="127.829" y="359.427" width="229.341" height="229.341" filterUnits="userSpaceOnUse" color-interpolation-filters="sRGB">
<feFlood flood-opacity="0" result="BackgroundImageFix"/>
<feBlend mode="normal" in="SourceGraphic" in2="BackgroundImageFix" result="shape"/>
<feGaussianBlur stdDeviation="18.7985" result="effect1_foregroundBlur_2242_1439"/>
</filter>
<filter id="filter1_f_2242_1439" x="-10.9032" y="374.465" width="198.888" height="199.264" filterUnits="userSpaceOnUse" color-interpolation-filters="sRGB">
<feFlood flood-opacity="0" result="BackgroundImageFix"/>
<feBlend mode="normal" in="SourceGraphic" in2="BackgroundImageFix" result="shape"/>
<feGaussianBlur stdDeviation="11.2791" result="effect1_foregroundBlur_2242_1439"/>
</filter>
<filter id="filter2_f_2242_1439" x="90.2325" y="168.058" width="304.535" height="304.159" filterUnits="userSpaceOnUse" color-interpolation-filters="sRGB">
<feFlood flood-opacity="0" result="BackgroundImageFix"/>
<feBlend mode="normal" in="SourceGraphic" in2="BackgroundImageFix" result="shape"/>
<feGaussianBlur stdDeviation="37.5969" result="effect1_foregroundBlur_2242_1439"/>
</filter>
<filter id="filter3_f_2242_1439" x="-25.9419" y="205.655" width="228.965" height="228.965" filterUnits="userSpaceOnUse" color-interpolation-filters="sRGB">
<feFlood flood-opacity="0" result="BackgroundImageFix"/>
<feBlend mode="normal" in="SourceGraphic" in2="BackgroundImageFix" result="shape"/>
<feGaussianBlur stdDeviation="18.7985" result="effect1_foregroundBlur_2242_1439"/>
</filter>
<filter id="filter4_f_2242_1439" x="142.868" y="528.613" width="199.264" height="199.264" filterUnits="userSpaceOnUse" color-interpolation-filters="sRGB">
<feFlood flood-opacity="0" result="BackgroundImageFix"/>
<feBlend mode="normal" in="SourceGraphic" in2="BackgroundImageFix" result="shape"/>
<feGaussianBlur stdDeviation="11.2791" result="effect1_foregroundBlur_2242_1439"/>
</filter>
<filter id="filter5_f_2242_1439" x="-3.38379" y="536.132" width="183.849" height="184.225" filterUnits="userSpaceOnUse" color-interpolation-filters="sRGB">
<feFlood flood-opacity="0" result="BackgroundImageFix"/>
<feBlend mode="normal" in="SourceGraphic" in2="BackgroundImageFix" result="shape"/>
<feGaussianBlur stdDeviation="7.51938" result="effect1_foregroundBlur_2242_1439"/>
</filter>
<clipPath id="clip0_2242_1439">
<rect width="1051.21" height="485" fill="white" transform="matrix(4.37114e-08 1 1 -4.37114e-08 0 2.12e-05)"/>
</clipPath>
</defs>
</svg>
