<svg width="314" height="63" viewBox="0 0 314 63" fill="none" xmlns="http://www.w3.org/2000/svg">
<path d="M22.3418 25.959C27.4485 24.4695 24.7888 19.5756 20.2141 19.5756C16.916 19.682 14.6818 21.7034 15.4265 25.1078C16.5968 30.0018 24.576 32.6615 29.2572 35.534L30.3211 36.1724C33.4064 38.3002 35.3214 41.3855 35.9597 44.0452C37.4492 50.3222 31.9169 56.812 20.746 57.3439C9.89426 57.8758 2.87255 54.4714 1.70226 49.6838C2.67539e-05 42.2366 13.8307 40.8535 15.6393 47.2369C10.5326 48.7263 13.2987 53.6203 17.7671 53.5139C21.0652 53.5139 23.4057 51.4925 22.5546 47.9816C21.3843 43.1941 13.7243 40.3216 9.04314 37.5554L7.87286 36.8107C4.89395 34.7893 2.76616 31.704 2.12782 29.0443C0.638364 22.8737 6.06423 16.3839 17.3415 15.7456C28.1933 15.2136 35.1086 18.6181 36.2789 23.512C38.0875 30.9593 24.1505 32.3423 22.3418 25.959ZM101.927 47.7688C101.927 56.0672 106.821 54.8969 107.14 56.3864C107.14 57.0247 106.608 57.4503 105.97 57.4503C104.693 57.4503 99.6929 56.1736 95.8629 56.1736C92.0329 56.1736 86.9262 57.4503 85.6495 57.4503C85.1175 57.4503 84.4792 57.0247 84.5856 56.3864C84.7984 54.8969 89.7987 56.0672 89.7987 47.7688V34.2574C89.7987 20.8523 82.9897 19.5756 77.2447 27.2356C77.7767 29.3634 78.0958 31.704 78.0958 34.2574V47.7688C78.0958 56.0672 82.9897 54.8969 83.2025 56.3864C83.3089 57.0247 82.6706 57.4503 82.1386 57.4503C80.862 57.4503 75.7553 56.1736 71.9252 56.1736C68.2016 56.1736 63.0949 57.4503 61.8182 57.4503C61.1799 57.4503 60.6479 57.0247 60.7543 56.3864C60.9671 54.8969 65.861 56.0672 65.861 47.7688V34.2574C65.861 20.8523 59.6904 19.7884 54.1582 26.9165V47.7688C54.1582 56.0672 59.1585 54.8969 59.3712 56.3864C59.4776 57.0247 58.8393 57.4503 58.201 57.4503C57.0307 57.4503 51.924 56.1736 48.0939 56.1736C44.2639 56.1736 39.1572 57.4503 37.8805 57.4503C37.3486 57.4503 36.7103 57.0247 36.8167 56.3864C37.0294 54.8969 42.0297 56.0672 42.0297 47.7688V34.151C42.0297 25.7462 36.7103 25.0015 36.8167 23.512C36.8167 22.9801 37.3486 22.5545 37.8805 22.5545C42.9872 22.5545 50.2217 18.4053 51.6048 16.7031C52.8815 15.2136 54.1582 15.5328 54.1582 16.9158V22.0225C54.1582 22.0225 59.3712 15.7456 64.6907 15.7456C69.5847 15.7456 73.6275 18.6181 75.968 23.6184C77.3511 21.9162 82.5642 15.7456 88.522 15.7456C96.8204 15.7456 101.927 22.7673 101.927 34.2574V47.7688ZM149.497 56.3864C149.604 57.0247 148.965 57.4503 148.433 57.4503C148.008 57.4503 138.326 54.5778 132.156 57.4503V52.45C130.241 55.0033 125.347 57.4503 118.006 57.4503C105.984 57.4503 101.941 43.726 116.304 38.1938C122.049 35.9596 132.156 34.5765 132.156 29.257C132.156 23.8312 129.496 19.2564 124.496 20.0011C118.751 20.9587 118.325 29.6826 124.177 29.6826C124.177 37.3427 108.857 38.5129 108.857 28.6187C108.857 21.7034 116.517 15.7456 125.985 15.7456C136.837 15.7456 144.391 20.4267 144.391 32.5551V47.7688C144.391 56.0672 149.285 54.8969 149.497 56.3864ZM132.156 47.2369V36.5979C129.603 38.8321 118.432 42.2366 120.027 48.088C121.411 53.5139 128.113 52.1308 132.156 47.2369ZM164.911 30.1082C172.04 10.5325 193.424 12.7667 193.424 26.2781C193.424 37.6618 179.061 38.7257 179.061 30.1082C181.827 30.1082 182.253 25.2142 178.742 25.2142C174.593 25.2142 168.209 28.8315 164.911 39.6832V47.7688C164.911 56.0672 169.912 54.8969 170.124 56.3864C170.231 57.0247 169.593 57.4503 168.954 57.4503C167.784 57.4503 162.677 56.1736 158.847 56.1736C155.017 56.1736 149.91 57.4503 148.634 57.4503C148.102 57.4503 147.464 57.0247 147.57 56.3864C147.783 54.8969 152.783 56.0672 152.783 47.7688V34.151C152.783 25.7462 147.464 25.0015 147.57 23.512C147.57 22.9801 148.102 22.5545 148.634 22.5545C153.74 22.5545 160.975 18.4053 162.358 16.7031C163.635 15.2136 164.911 15.5328 164.911 16.9158V30.1082ZM223.803 48.088C224.973 46.3858 227.633 46.5986 226.995 48.088C222.42 59.6845 200.078 62.7698 200.078 43.5133V20.0011H193.908V16.8095C202.844 16.8095 208.27 3.19159 209.76 1.48936C210.93 -9.82285e-05 212.313 0.319066 212.313 1.70213V15.7456H225.718V20.0011H212.313V42.9813C212.313 57.4503 220.292 53.1947 223.803 48.088ZM264.829 45.9602C266.318 44.3644 268.34 44.5771 267.488 46.173C264.084 52.45 256.211 57.4503 248.445 57.4503C236.423 57.4503 226.635 48.088 226.635 36.5979C226.635 25.1078 236.423 15.7456 248.445 15.7456C265.254 15.7456 270.042 29.257 262.701 36.8107C257.169 42.6621 244.296 44.1516 240.678 37.8746C241.529 54.0458 258.764 52.1308 264.829 45.9602ZM251.53 20.9587C246.104 19.8948 241.423 26.4909 240.785 34.4701C251.956 40.7471 258.977 22.4481 251.53 20.9587ZM284.911 30.1082C292.039 10.5325 313.424 12.7667 313.424 26.2781C313.424 37.6618 299.061 38.7257 299.061 30.1082C301.827 30.1082 302.253 25.2142 298.742 25.2142C294.593 25.2142 288.209 28.8315 284.911 39.6832V47.7688C284.911 56.0672 289.912 54.8969 290.124 56.3864C290.231 57.0247 289.593 57.4503 288.954 57.4503C287.784 57.4503 282.677 56.1736 278.847 56.1736C275.017 56.1736 269.91 57.4503 268.634 57.4503C268.102 57.4503 267.463 57.0247 267.57 56.3864C267.783 54.8969 272.783 56.0672 272.783 47.7688V34.151C272.783 25.7462 267.463 25.0015 267.57 23.512C267.57 22.9801 268.102 22.5545 268.634 22.5545C273.74 22.5545 280.975 18.4053 282.358 16.7031C283.635 15.2136 284.911 15.5328 284.911 16.9158V30.1082Z" fill="url(#paint0_radial_2242_1474)"/>
<defs>
<radialGradient id="paint0_radial_2242_1474" cx="0" cy="0" r="1" gradientUnits="userSpaceOnUse" gradientTransform="translate(157.752 34.4934) scale(203.45 114)">
<stop offset="0.3" stop-color="white"/>
<stop offset="1" stop-color="white" stop-opacity="0.4"/>
</radialGradient>
</defs>
</svg>
